# xmcd
#
# Track frame offsets:
#	182
#	12526
#	23560
#	33356
#	45519
#	56779
#	70403
#	85098
#	97351
#	110433
#	124899
#	135004
#	148726
#	159433
#	173109
#	188032
#	201176
#	214465
#
# Disc length: 3030 seconds
#
# Revision: 0
# Processed by: cddbd v1.5.1PL0 Copyright (c) Steve Scherf et al.
# Submitted via: dBpowerAMP V4.0
#
DISCID=020bd412
DTITLE=King Oliver - The Quintessence
DYEAR=1996
DGENRE=Blues
TTITLE0=Just Gone
TTITLE1=Canal Street Blues
TTITLE2=Mandy Lee Blues
TTITLE3=Weather Bird Rag
TTITLE4=Dipper Mouth Blues I
TTITLE5=Froggie Moore
TTITLE6=Snake Rag
TTITLE7=Sweet Lovin' Man
TTITLE8=High Society Rag
TTITLE9=Sobbin' Blues
TTITLE10=Dipper Mouth Blues II
TTITLE11=Jazzin' Babies Blues
TTITLE12=Alligator Hop
TTITLE13=Buddy's Habit
TTITLE14=I Ain't Gonna Tell Nobody
TTITLE15=Riverside Blues
TTITLE16=Working Man Blues
TTITLE17=Mabel's Dream
EXTD=
EXTT0=
EXTT1=
EXTT2=
EXTT3=
EXTT4=
EXTT5=
EXTT6=
EXTT7=
EXTT8=
EXTT9=
EXTT10=
EXTT11=
EXTT12=
EXTT13=
EXTT14=
EXTT15=
EXTT16=
EXTT17=
PLAYORDER=
